<?xml version="1.0" standalone="no"?>
<!DOCTYPE svg PUBLIC "-//W3C//DTD SVG 20010904//EN"
 "http://www.w3.org/TR/2001/REC-SVG-20010904/DTD/svg10.dtd">
<svg version="1.0" xmlns="http://www.w3.org/2000/svg"
 width="130.000000pt" height="130.000000pt" viewBox="0 0 130.000000 130.000000"
 preserveAspectRatio="xMidYMid meet">

<g transform="translate(0.000000,130.000000) scale(0.100000,-0.100000)"
fill="#000000" stroke="none">
<path d="M301 647 c-135 -336 -244 -613 -243 -615 1 -2 57 -3 123 -3 l122 0
165 415 c116 293 169 413 176 406 7 -5 36 -70 66 -144 l55 -136 128 0 c102 0
128 3 125 13 -2 8 -64 163 -138 345 l-135 332 -100 0 -100 0 -244 -613z"/>
<path d="M543 375 l-41 -105 188 0 c220 0 196 13 256 -140 l39 -100 110 -1
c60 0 118 -2 128 -4 9 -2 17 2 17 9 0 6 -40 108 -88 226 l-89 215 -239 3 -239
2 -42 -105z"/>
</g>
</svg>
